<svg width="25" height="25" viewBox="0 0 25 25" fill="none" xmlns="http://www.w3.org/2000/svg">
<path d="M2.43799 12.2165C2.43799 17.7049 6.8923 22.1592 12.3807 22.1592C17.869 22.1592 22.3233 17.7049 22.3233 12.2165C22.3233 6.72815 17.869 2.27384 12.3807 2.27384C6.8923 2.27384 2.43799 6.72815 2.43799 12.2165ZM13.4048 8.70675L16.3876 11.6895C16.5367 11.8387 16.6063 12.0276 16.6063 12.2165C16.6063 12.4054 16.5367 12.5943 16.3876 12.7435L13.4048 15.7263C13.1164 16.0146 12.6392 16.0146 12.3508 15.7263C12.0625 15.4379 12.0625 14.9607 12.3508 14.6723L14.061 12.9622H8.90072C8.49307 12.9622 8.15502 12.6242 8.15502 12.2165C8.15502 11.8089 8.49307 11.4708 8.90072 11.4708H14.061L12.3508 9.76067C12.0625 9.47233 12.0625 8.99508 12.3508 8.70675C12.6392 8.41841 13.1164 8.41841 13.4048 8.70675Z" fill="white"/>
</svg>
