<svg width="20" height="21" viewBox="0 0 20 21" fill="none" xmlns="http://www.w3.org/2000/svg">
<g clip-path="url(#clip0_4_1430)">
<g clip-path="url(#clip1_4_1430)">
<path d="M9.9842 10.7967C9.651 10.7973 9.32808 10.6813 9.07152 10.4687L0.515166 3.33841C0.223941 3.09635 0.0408013 2.74852 0.00603439 2.37143C-0.0287325 1.99435 0.0877215 1.61889 0.329779 1.32767C0.571836 1.03644 0.919668 0.853301 1.29676 0.818534C1.67384 0.783767 2.0493 0.900222 2.34052 1.14228L9.9842 7.53102L17.6279 1.37045C17.7785 1.24983 17.9514 1.16021 18.1368 1.10675C18.3222 1.05329 18.5163 1.03704 18.708 1.05894C18.8997 1.08085 19.0851 1.14047 19.2537 1.23438C19.4222 1.32829 19.5705 1.45462 19.69 1.6061C19.8095 1.75758 19.8978 1.93121 19.9499 2.11698C20.002 2.30275 20.0168 2.497 19.9934 2.68851C19.9701 2.88003 19.9091 3.06504 19.8139 3.23287C19.7188 3.40071 19.5913 3.54805 19.439 3.6664L10.8826 10.5543C10.6187 10.7333 10.3024 10.8186 9.9842 10.7967Z" fill="white"/>
<path d="M9.9842 20.7838C9.651 20.7844 9.32808 20.6684 9.07152 20.4558L0.515166 13.3255C0.223941 13.0834 0.0408013 12.7356 0.00603439 12.3585C-0.0287325 11.9814 0.0877215 11.606 0.329779 11.3147C0.571836 11.0235 0.919668 10.8404 1.29676 10.8056C1.67384 10.7708 2.0493 10.8873 2.34052 11.1293L9.9842 17.5181L17.6279 11.3575C17.7785 11.2369 17.9514 11.1473 18.1368 11.0938C18.3222 11.0403 18.5163 11.0241 18.708 11.046C18.8997 11.0679 19.0851 11.1275 19.2537 11.2214C19.4222 11.3153 19.5705 11.4417 19.69 11.5932C19.8095 11.7446 19.8978 11.9183 19.9499 12.104C20.002 12.2898 20.0168 12.4841 19.9934 12.6756C19.9701 12.8671 19.9091 13.0521 19.8139 13.2199C19.7188 13.3878 19.5913 13.5351 19.439 13.6535L10.8826 20.5413C10.6187 20.7203 10.3024 20.8057 9.9842 20.7838Z" fill="white"/>
</g>
</g>
<defs>
<clipPath id="clip0_4_1430">
<rect width="20" height="20" fill="white" transform="translate(0 0.800049)"/>
</clipPath>
<clipPath id="clip1_4_1430">
<rect width="20" height="19.9753" fill="white" transform="translate(0 0.8125)"/>
</clipPath>
</defs>
</svg>
