<svg width="30" height="31" viewBox="0 0 30 31" fill="none" xmlns="http://www.w3.org/2000/svg">
<path d="M9.9176 7.81689C9.40931 7.81689 8.98779 7.39538 8.98779 6.88708V3.16785C8.98779 2.65955 9.40931 2.23804 9.9176 2.23804C10.4259 2.23804 10.8474 2.65955 10.8474 3.16785V6.88708C10.8474 7.39538 10.4259 7.81689 9.9176 7.81689Z" fill="#6E6E6E"/>
<path d="M19.8361 7.81689C19.3278 7.81689 18.9062 7.39538 18.9062 6.88708V3.16785C18.9062 2.65955 19.3278 2.23804 19.8361 2.23804C20.3444 2.23804 20.7659 2.65955 20.7659 3.16785V6.88708C20.7659 7.39538 20.3444 7.81689 19.8361 7.81689Z" fill="#6E6E6E"/>
<path d="M10.5376 18.6648C10.3764 18.6648 10.2153 18.6276 10.0665 18.5656C9.90533 18.5036 9.78135 18.4168 9.65738 18.3052C9.43422 18.0697 9.29785 17.7597 9.29785 17.425C9.29785 17.2638 9.33505 17.1027 9.39703 16.9539C9.45902 16.8051 9.5458 16.6688 9.65738 16.5448C9.78135 16.4332 9.90533 16.3464 10.0665 16.2844C10.5128 16.0985 11.0707 16.1977 11.4178 16.5448C11.641 16.7803 11.7773 17.1027 11.7773 17.425C11.7773 17.4994 11.7649 17.5862 11.7525 17.673C11.7402 17.7474 11.7154 17.8217 11.6782 17.8961C11.6534 17.9705 11.6162 18.0449 11.5666 18.1193C11.5294 18.1812 11.4674 18.2432 11.4178 18.3052C11.1823 18.5284 10.8599 18.6648 10.5376 18.6648Z" fill="#6E6E6E"/>
<path d="M14.877 18.6644C14.7158 18.6644 14.5546 18.6272 14.4058 18.5652C14.2447 18.5033 14.1207 18.4164 13.9967 18.3049C13.7736 18.0693 13.6372 17.7594 13.6372 17.4247C13.6372 17.2635 13.6744 17.1023 13.7364 16.9535C13.7984 16.8048 13.8852 16.6684 13.9967 16.5444C14.1207 16.4329 14.2447 16.3461 14.4058 16.2841C14.8522 16.0857 15.41 16.1973 15.7572 16.5444C15.9803 16.78 16.1167 17.1023 16.1167 17.4247C16.1167 17.499 16.1043 17.5858 16.0919 17.6726C16.0795 17.747 16.0547 17.8214 16.0175 17.8958C15.9927 17.9702 15.9555 18.0445 15.9059 18.1189C15.8688 18.1809 15.8068 18.2429 15.7572 18.3049C15.5216 18.528 15.1993 18.6644 14.877 18.6644Z" fill="#6E6E6E"/>
<path d="M19.2163 18.6644C19.0551 18.6644 18.894 18.6272 18.7452 18.5652C18.584 18.5033 18.4601 18.4164 18.3361 18.3049C18.2865 18.2429 18.2369 18.1809 18.1873 18.1189C18.1377 18.0445 18.1005 17.9702 18.0757 17.8958C18.0386 17.8214 18.0138 17.747 18.0014 17.6726C17.989 17.5858 17.9766 17.499 17.9766 17.4247C17.9766 17.1023 18.1129 16.78 18.3361 16.5444C18.4601 16.4329 18.584 16.3461 18.7452 16.2841C19.2039 16.0857 19.7494 16.1973 20.0965 16.5444C20.3197 16.78 20.4561 17.1023 20.4561 17.4247C20.4561 17.499 20.4437 17.5858 20.4313 17.6726C20.4189 17.747 20.3941 17.8214 20.3569 17.8958C20.3321 17.9702 20.2949 18.0445 20.2453 18.1189C20.2081 18.1809 20.1461 18.2429 20.0965 18.3049C19.861 18.528 19.5386 18.6644 19.2163 18.6644Z" fill="#6E6E6E"/>
<path d="M10.5376 23.0035C10.3764 23.0035 10.2153 22.9664 10.0665 22.9044C9.91772 22.8424 9.78135 22.7556 9.65738 22.644C9.43422 22.4084 9.29785 22.0861 9.29785 21.7638C9.29785 21.6026 9.33505 21.4414 9.39703 21.2927C9.45902 21.1315 9.5458 20.9952 9.65738 20.8836C10.1161 20.4249 10.9591 20.4249 11.4178 20.8836C11.641 21.1191 11.7773 21.4415 11.7773 21.7638C11.7773 22.0861 11.641 22.4084 11.4178 22.644C11.1823 22.8672 10.8599 23.0035 10.5376 23.0035Z" fill="#6E6E6E"/>
<path d="M14.877 23.0035C14.5546 23.0035 14.2323 22.8672 13.9967 22.644C13.7736 22.4084 13.6372 22.0861 13.6372 21.7638C13.6372 21.6026 13.6744 21.4414 13.7364 21.2927C13.7984 21.1315 13.8852 20.9952 13.9967 20.8836C14.4554 20.4249 15.2985 20.4249 15.7572 20.8836C15.8687 20.9952 15.9555 21.1315 16.0175 21.2927C16.0795 21.4414 16.1167 21.6026 16.1167 21.7638C16.1167 22.0861 15.9803 22.4084 15.7572 22.644C15.5216 22.8672 15.1993 23.0035 14.877 23.0035Z" fill="#6E6E6E"/>
<path d="M19.2163 23.0035C18.894 23.0035 18.5716 22.8672 18.3361 22.644C18.2245 22.5324 18.1377 22.3961 18.0757 22.2349C18.0138 22.0861 17.9766 21.925 17.9766 21.7638C17.9766 21.6026 18.0138 21.4415 18.0757 21.2927C18.1377 21.1315 18.2245 20.9952 18.3361 20.8836C18.6212 20.5984 19.0551 20.4621 19.4519 20.5488C19.5386 20.5612 19.613 20.586 19.6874 20.6232C19.7618 20.648 19.8362 20.6852 19.9106 20.7348C19.9726 20.772 20.0345 20.834 20.0965 20.8836C20.3197 21.1191 20.4561 21.4415 20.4561 21.7638C20.4561 22.0861 20.3197 22.4085 20.0965 22.644C19.861 22.8672 19.5386 23.0035 19.2163 23.0035Z" fill="#6E6E6E"/>
<path d="M25.4147 12.8872H4.33899C3.83069 12.8872 3.40918 12.4657 3.40918 11.9574C3.40918 11.4491 3.83069 11.0276 4.33899 11.0276H25.4147C25.923 11.0276 26.3445 11.4491 26.3445 11.9574C26.3445 12.4657 25.923 12.8872 25.4147 12.8872Z" fill="#6E6E6E"/>
<path d="M19.8361 28.8926H9.91809C5.39302 28.8926 2.78955 26.2891 2.78955 21.764V11.2262C2.78955 6.70112 5.39302 4.09766 9.91809 4.09766H19.8361C24.3611 4.09766 26.9646 6.70112 26.9646 11.2262V21.764C26.9646 26.2891 24.3611 28.8926 19.8361 28.8926ZM9.91809 5.95728C6.37242 5.95728 4.64917 7.68052 4.64917 11.2262V21.764C4.64917 25.3097 6.37242 27.033 9.91809 27.033H19.8361C23.3817 27.033 25.105 25.3097 25.105 21.764V11.2262C25.105 7.68052 23.3817 5.95728 19.8361 5.95728H9.91809Z" fill="#6E6E6E"/>
</svg>
